.
 
http://www.scenetime.com    -  Hottest private tracker on the net. !!!

Sign up will close shortly !!  Join now 

        Seed back for speed


...................................NFO:.................................................
                                                     
                                                   
                                                         
                                                          
                                                           
                                                          
                                                          
                                                          
                                                           
                                                         
                                                          
                                                        
                                                      
                                     
                                                 
                                                   
                                             
                                              
                                                     
                                                      
                                                      
                                                      
                                                    
                                                     
                                                   
                                                     
                                                     
                                                      
                                                     
                                                      
                                                    
                 ARTiCHOKE                        
                                                
                      
                                                        
                                                      
                                                      
                                               
                                          
                                                   
                                            
                                                    
                                                       
                                                        
                                                      
                                                
                                                        
                                                 
                                              
                                                  
                                                
                                                  
                                        

      
                                
      SPRiNTER proudly presents...     
                                
      
 
 Hi-5.Dance.Hits.Volume.1.2005.DVDRip.XViD-SPRiNTER  http://www.fishpond.co.nz/Movies/Hi-5-Dance-Hits-Volume-1-Charlie-Robinson/9398710525694
 

 Date: 2011.08

 

      
                 
      Release notes     
                 
      

 

	Enjoy!


      
           
     Greetings    
           
      


NTX FiCO HNR CiNEFiLE AEN HUMANiSM TASTE 0MNiDVD


      
           
      Details     
           
      

Format                           : AVI
Format/Info                      : Audio Video Interleave
File size                        : 702 MiB
Duration                         : 56mn 32s
Overall bit rate                 : 1 736 Kbps
Writing application              : Nandub v1.0rc2
Writing library                  : Nandub build 1853/release

Video
ID                               : 0
Format                           : MPEG-4 Visual
Format profile                   : Advanced Simple@L5
Format settings, BVOP            : No
Format settings, QPel            : No
Format settings, GMC             : No warppoints
Format settings, Matrix          : Default (H.263)
Codec ID                         : XVID
Codec ID/Hint                    : XviD
Duration                         : 56mn 32s
Bit rate                         : 1 576 Kbps
Width                            : 576 pixels
Height                           : 432 pixels
Display aspect ratio             : 4:3
Frame rate                       : 25.000 fps
Color space                      : YUV
Chroma subsampling               : 4:2:0
Bit depth                        : 8 bits
Scan type                        : Progressive
Compression mode                 : Lossy
Bits/(Pixel*Frame)               : 0.253
Stream size                      : 637 MiB (91%)
Writing library                  : XviD 61

Audio
ID                               : 1
Format                           : MPEG Audio
Format version                   : Version 1
Format profile                   : Layer 3
Codec ID                         : 55
Codec ID/Hint                    : MP3
Duration                         : 56mn 32s
Bit rate mode                    : Variable
Bit rate                         : 147 Kbps
Channel(s)                       : 2 channels
Sampling rate                    : 48.0 KHz
Compression mode                 : Lossy
Stream size                      : 59.5 MiB (8%)
Alignment                        : Aligned on interleaves
Interleave, duration             : 24 ms (0.60 video frame)
Interleave, preload duration     : 194 ms
Writing library                  : LAME3.89 (alpha)